<svg xmlns="http://www.w3.org/2000/svg" xmlns:xlink="http://www.w3.org/1999/xlink" width="1000" zoomAndPan="magnify" viewBox="0 0 750 749.999995" height="1000" preserveAspectRatio="xMidYMid meet" version="1.0"><defs><filter x="0%" y="0%" width="100%" height="100%" id="e53028f0b0"><feColorMatrix values="0 0 0 0 1 0 0 0 0 1 0 0 0 0 1 0 0 0 1 0" color-interpolation-filters="sRGB"/></filter><g/><mask id="42c0b838ae"><g filter="url(#e53028f0b0)"><rect x="-75" width="900" fill="#000000" y="-74.999999" height="899.999994" fill-opacity="0.71"/></g></mask><clipPath id="6e3978fd82"><path d="M 0 0 L 750 0 L 750 750 L 0 750 Z M 0 0 " clip-rule="nonzero"/></clipPath><clipPath id="77db3754ed"><rect x="0" width="750" y="0" height="750"/></clipPath><clipPath id="64f18adf9c"><path d="M 0 150.167969 L 561.535156 150.167969 L 561.535156 599.832031 L 0 599.832031 Z M 0 150.167969 " clip-rule="nonzero"/></clipPath><clipPath id="9a6b740282"><path d="M 0 0.167969 L 561.535156 0.167969 L 561.535156 449.832031 L 0 449.832031 Z M 0 0.167969 " clip-rule="nonzero"/></clipPath><clipPath id="f3faf63edb"><rect x="0" width="562" y="0" height="450"/></clipPath><clipPath id="e569fa7d95"><path d="M 141 378 L 240 378 L 240 497 L 141 497 Z M 141 378 " clip-rule="nonzero"/></clipPath><clipPath id="da150dd84c"><path d="M 181.339844 378.058594 L 239.722656 403.300781 L 199.609375 496.058594 L 141.230469 470.816406 Z M 181.339844 378.058594 " clip-rule="nonzero"/></clipPath><clipPath id="ffb5ba6b7f"><path d="M 0.121094 0 L 98.761719 0 L 98.761719 118.078125 L 0.121094 118.078125 Z M 0.121094 0 " clip-rule="nonzero"/></clipPath><clipPath id="7be77bd77b"><path d="M 40.339844 0.0585938 L 98.722656 25.300781 L 58.609375 118.058594 L 0.230469 92.816406 Z M 40.339844 0.0585938 " clip-rule="nonzero"/></clipPath><clipPath id="a913eb331e"><rect x="0" width="99" y="0" height="119"/></clipPath><clipPath id="9c1ca16eaa"><path d="M 232 378 L 301 378 L 301 474 L 232 474 Z M 232 378 " clip-rule="nonzero"/></clipPath><clipPath id="cf07b07802"><path d="M 232.246094 392.152344 L 265.949219 378.054688 L 300.050781 459.5625 L 266.347656 473.660156 Z M 232.246094 392.152344 " clip-rule="nonzero"/></clipPath><clipPath id="2ab86a5049"><path d="M 0.078125 0 L 68.238281 0 L 68.238281 95.761719 L 0.078125 95.761719 Z M 0.078125 0 " clip-rule="nonzero"/></clipPath><clipPath id="3278c08fb6"><path d="M 0.246094 14.152344 L 33.949219 0.0546875 L 68.050781 81.5625 L 34.347656 95.660156 Z M 0.246094 14.152344 " clip-rule="nonzero"/></clipPath><clipPath id="4552d63f4e"><rect x="0" width="69" y="0" height="96"/></clipPath><clipPath id="61676c83dd"><path d="M 213 391 L 288 391 L 288 462 L 213 462 Z M 213 391 " clip-rule="nonzero"/></clipPath><clipPath id="0e194556cb"><path d="M 213.882812 414.625 L 268.035156 391.738281 L 287.671875 438.199219 L 233.519531 461.085938 Z M 213.882812 414.625 " clip-rule="nonzero"/></clipPath><clipPath id="28db73e1eb"><path d="M 0.839844 0.679688 L 74.761719 0.679688 L 74.761719 70.28125 L 0.839844 70.28125 Z M 0.839844 0.679688 " clip-rule="nonzero"/></clipPath><clipPath id="a964d88f0d"><path d="M 0.882812 23.625 L 55.035156 0.738281 L 74.671875 47.199219 L 20.519531 70.085938 Z M 0.882812 23.625 " clip-rule="nonzero"/></clipPath><clipPath id="4c35f3c396"><rect x="0" width="75" y="0" height="71"/></clipPath><clipPath id="56734d8e35"><path d="M 149.273438 397.753906 L 226 397.753906 L 226 443.503906 L 149.273438 443.503906 Z M 149.273438 397.753906 " clip-rule="nonzero"/></clipPath><clipPath id="67d33ad2b4"><path d="M 221 397.753906 L 297.773438 397.753906 L 297.773438 443.503906 L 221 443.503906 Z M 221 397.753906 " clip-rule="nonzero"/></clipPath></defs><rect x="-75" width="900" fill="#ffffff" y="-74.999999" height="899.999994" fill-opacity="1"/><rect x="-75" width="900" fill="#f8ffff" y="-74.999999" height="899.999994" fill-opacity="1"/><g mask="url(#42c0b838ae)"><g transform="matrix(1, 0, 0, 1, 0, -0.000000000000042435)"><g clip-path="url(#77db3754ed)"><path fill="#000000" d="M 2.25 4.5 L 2.25 747.75 M 188.625 4.5 L 188.625 747.75 M 375 4.5 L 375 747.75 M 561.375 4.5 L 561.375 747.75 M 747.75 4.5 L 747.75 747.75 M 0 2.25 L 750 2.25 M 0 151.800781 L 750 151.800781 M 0 301.351562 L 750 301.351562 M 0 450.898438 L 750 450.898438 M 0 600.449219 L 750 600.449219 M 0 750 L 750 750 " fill-opacity="1" fill-rule="nonzero"/><g clip-path="url(#6e3978fd82)"><path stroke-linecap="butt" transform="matrix(0.75, 0, 0, 0.75, 0.00000265, 0.00002)" fill="none" stroke-linejoin="miter" d="M 2.999997 5.999974 L 2.999997 997.000022 M 251.500009 5.999974 L 251.500009 997.000022 M 500.000021 5.999974 L 500.000021 997.000022 M 748.500033 5.999974 L 748.500033 997.000022 M 997.000045 5.999974 L 997.000045 997.000022 M -0.00000353333 2.999973 L 1000.000045 2.999973 M -0.00000353333 202.401025 L 1000.000045 202.401025 M -0.00000353333 401.802076 L 1000.000045 401.802076 M -0.00000353333 601.197919 L 1000.000045 601.197919 M -0.00000353333 800.598971 L 1000.000045 800.598971 M -0.00000353333 1000.000022 L 1000.000045 1000.000022 " stroke="#34af9e" stroke-width="6" stroke-opacity="1" stroke-miterlimit="4"/></g></g></g></g><g clip-path="url(#64f18adf9c)"><g transform="matrix(1, 0, 0, 1, 0, 150)"><g clip-path="url(#f3faf63edb)"><g clip-path="url(#9a6b740282)"><path fill="#34af9e" d="M 0 0.167969 L 562.082031 0.167969 L 562.082031 449.832031 L 0 449.832031 Z M 0 0.167969 " fill-opacity="1" fill-rule="nonzero"/></g></g></g></g><g fill="#f8ffff" fill-opacity="1"><g transform="translate(74.999999, 529.367814)"><g><path d="M 149.8125 -334.3125 L 293.265625 0 L 253.90625 0 L 216.25 -90.5625 L 79.984375 -90.5625 L 41.46875 0 L 2.546875 0 Z M 94.375 -123.578125 L 202.28125 -123.578125 L 148.96875 -251.375 Z M 57.546875 -319.078125 Z M 57.546875 -319.078125 "/></g></g></g><g fill="#f8ffff" fill-opacity="1"><g transform="translate(370.807605, 529.367814)"><g><path d="M 68.5625 -319.078125 L 68.5625 0 L 33.015625 0 L 33.015625 -319.078125 Z M 68.5625 -319.078125 "/></g></g></g><g clip-path="url(#e569fa7d95)"><g clip-path="url(#da150dd84c)"><g transform="matrix(1, 0, 0, 1, 141, 378)"><g clip-path="url(#a913eb331e)"><g clip-path="url(#ffb5ba6b7f)"><g clip-path="url(#7be77bd77b)"><path fill="#34af9e" d="M 40.339844 0.0585938 L 98.722656 25.300781 L 58.585938 118.117188 L 0.203125 92.875 Z M 40.339844 0.0585938 " fill-opacity="1" fill-rule="nonzero"/></g></g></g></g></g></g><g clip-path="url(#9c1ca16eaa)"><g clip-path="url(#cf07b07802)"><g transform="matrix(1, 0, 0, 1, 232, 378)"><g clip-path="url(#4552d63f4e)"><g clip-path="url(#2ab86a5049)"><g clip-path="url(#3278c08fb6)"><path fill="#34af9e" d="M 0.246094 14.152344 L 33.949219 0.0546875 L 68.042969 81.542969 L 34.339844 95.644531 Z M 0.246094 14.152344 " fill-opacity="1" fill-rule="nonzero"/></g></g></g></g></g></g><g clip-path="url(#61676c83dd)"><g clip-path="url(#0e194556cb)"><g transform="matrix(1, 0, 0, 1, 213, 391)"><g clip-path="url(#4c35f3c396)"><g clip-path="url(#28db73e1eb)"><g clip-path="url(#a964d88f0d)"><path fill="#34af9e" d="M 0.882812 23.625 L 54.964844 0.765625 L 74.601562 47.230469 L 20.519531 70.085938 Z M 0.882812 23.625 " fill-opacity="1" fill-rule="nonzero"/></g></g></g></g></g></g><g clip-path="url(#56734d8e35)"><path fill="#f8ffff" d="M 225.570312 399.640625 C 225.597656 400.167969 225.410156 400.683594 225.046875 401.066406 C 224.683594 401.453125 224.179688 401.671875 223.652344 401.671875 L 151.386719 401.957031 L 153.304688 400.035156 L 153.136719 441.640625 L 149.941406 440.179688 C 160.003906 431.382812 170.324219 422.34375 182.679688 416.820312 C 195.019531 411.300781 209.285156 409.335938 223.203125 407.40625 C 224.257812 407.261719 225.230469 407.996094 225.375 409.050781 C 225.523438 410.105469 224.785156 411.078125 223.730469 411.226562 C 209.691406 413.171875 196 415.085938 184.253906 420.339844 C 172.519531 425.585938 162.625 434.214844 152.476562 443.082031 C 151.90625 443.582031 151.097656 443.699219 150.40625 443.382812 C 149.71875 443.070312 149.277344 442.378906 149.28125 441.621094 L 149.449219 400.019531 C 149.457031 398.960938 150.3125 398.105469 151.371094 398.101562 L 223.636719 397.816406 L 221.71875 399.851562 L 221.71875 399.847656 C 221.660156 398.785156 222.476562 397.878906 223.539062 397.820312 C 224.601562 397.761719 225.511719 398.578125 225.570312 399.640625 Z M 225.570312 399.640625 " fill-opacity="1" fill-rule="nonzero"/></g><g clip-path="url(#67d33ad2b4)"><path fill="#f8ffff" d="M 221.800781 399.640625 C 221.769531 400.167969 221.960938 400.683594 222.320312 401.066406 C 222.683594 401.453125 223.1875 401.671875 223.714844 401.671875 L 295.980469 401.957031 L 294.0625 400.035156 L 294.230469 441.636719 L 297.429688 440.179688 C 287.363281 431.382812 277.042969 422.34375 264.691406 416.820312 C 252.351562 411.300781 238.082031 409.335938 224.164062 407.40625 C 223.109375 407.261719 222.136719 407.996094 221.992188 409.050781 C 221.84375 410.105469 222.582031 411.078125 223.636719 411.226562 C 237.675781 413.171875 251.371094 415.085938 263.117188 420.339844 C 274.851562 425.585938 284.742188 434.214844 294.890625 443.082031 C 295.460938 443.582031 296.269531 443.699219 296.960938 443.382812 C 297.648438 443.070312 298.089844 442.378906 298.085938 441.621094 L 297.917969 400.019531 C 297.914062 398.960938 297.054688 398.105469 295.996094 398.101562 L 223.730469 397.816406 L 225.648438 399.847656 C 225.707031 398.785156 224.890625 397.878906 223.828125 397.820312 C 222.765625 397.761719 221.855469 398.578125 221.800781 399.640625 Z M 221.800781 399.640625 " fill-opacity="1" fill-rule="nonzero"/></g><path fill="#f8ffff" d="M 154.660156 400.503906 L 154.664062 400.511719 L 170.441406 424.621094 L 166.898438 425.667969 L 166.992188 401.082031 C 166.996094 400.324219 167.441406 399.640625 168.128906 399.332031 C 168.820312 399.019531 169.625 399.140625 170.195312 399.640625 L 187.25 414.648438 L 184.058594 415.917969 L 185.484375 400.421875 C 185.542969 399.746094 185.957031 399.152344 186.574219 398.859375 C 187.1875 398.566406 187.90625 398.617188 188.472656 398.996094 L 204.996094 410.035156 L 202.011719 411.425781 L 203.207031 400.597656 C 203.273438 399.980469 203.636719 399.433594 204.179688 399.128906 C 204.726562 398.824219 205.382812 398.800781 205.945312 399.066406 L 223.488281 407.34375 L 220.738281 409.050781 L 220.898438 400.710938 C 220.917969 399.644531 221.796875 398.800781 222.863281 398.820312 C 223.925781 398.839844 224.773438 399.71875 224.753906 400.785156 L 224.59375 409.125 C 224.582031 409.777344 224.238281 410.378906 223.683594 410.726562 C 223.128906 411.070312 222.433594 411.109375 221.84375 410.832031 L 204.300781 402.554688 L 207.039062 401.023438 L 205.84375 411.851562 C 205.769531 412.519531 205.351562 413.101562 204.738281 413.386719 C 204.128906 413.667969 203.414062 413.613281 202.855469 413.242188 L 186.332031 402.199219 L 189.320312 400.773438 L 187.894531 416.269531 C 187.828125 416.992188 187.363281 417.617188 186.6875 417.882812 C 186.015625 418.152344 185.246094 418.019531 184.703125 417.539062 L 167.648438 402.535156 L 170.847656 401.097656 L 170.753906 425.683594 C 170.75 426.535156 170.191406 427.28125 169.375 427.523438 C 168.558594 427.765625 167.679688 427.445312 167.214844 426.730469 L 151.441406 402.625 L 151.445312 402.632812 C 150.859375 401.746094 151.101562 400.550781 151.988281 399.960938 C 152.875 399.375 154.070312 399.617188 154.660156 400.503906 Z M 154.660156 400.503906 " fill-opacity="1" fill-rule="nonzero"/><path fill="#f8ffff" d="M 292.707031 400.503906 L 292.703125 400.511719 L 276.929688 424.621094 L 280.46875 425.667969 L 280.375 401.082031 C 280.371094 400.324219 279.925781 399.640625 279.238281 399.332031 C 278.546875 399.019531 277.742188 399.140625 277.175781 399.640625 L 260.117188 414.644531 L 263.308594 415.917969 L 261.886719 400.421875 C 261.824219 399.746094 261.410156 399.152344 260.796875 398.859375 C 260.183594 398.566406 259.460938 398.617188 258.894531 398.996094 L 242.371094 410.035156 L 245.355469 411.425781 L 244.160156 400.597656 C 244.09375 399.980469 243.730469 399.433594 243.1875 399.128906 C 242.640625 398.824219 241.984375 398.800781 241.421875 399.066406 L 223.878906 407.34375 L 226.628906 409.050781 L 226.46875 400.710938 C 226.449219 399.644531 225.570312 398.800781 224.503906 398.820312 C 223.441406 398.839844 222.59375 399.71875 222.613281 400.785156 L 222.773438 409.125 C 222.785156 409.777344 223.128906 410.378906 223.683594 410.726562 C 224.238281 411.070312 224.933594 411.109375 225.523438 410.832031 L 243.066406 402.554688 L 240.328125 401.023438 L 241.523438 411.851562 C 241.597656 412.519531 242.015625 413.101562 242.628906 413.386719 C 243.238281 413.667969 243.953125 413.613281 244.511719 413.242188 L 261.035156 402.199219 L 258.046875 400.773438 L 259.472656 416.269531 C 259.539062 416.992188 260.003906 417.617188 260.679688 417.882812 C 261.351562 418.152344 262.121094 418.019531 262.664062 417.539062 L 279.71875 402.535156 L 276.519531 401.097656 L 276.613281 425.683594 C 276.617188 426.535156 277.175781 427.28125 277.992188 427.523438 C 278.808594 427.765625 279.6875 427.445312 280.152344 426.730469 L 295.929688 402.625 L 295.921875 402.632812 C 296.507812 401.746094 296.265625 400.550781 295.378906 399.960938 C 294.492188 399.375 293.296875 399.617188 292.707031 400.503906 Z M 292.707031 400.503906 " fill-opacity="1" fill-rule="nonzero"/></svg>